<svg width="24" height="24" xmlns="http://www.w3.org/2000/svg">

 <g>
  <title>Layer 1</title>
  <path id="svg_1" fill="#000000" d="m13.4142,12l4.5858,4.5857c0.3905,0.3906 0.3905,1.0237 0,1.4143c-0.3905,0.3905 -1.0237,0.3905 -1.4142,0l-5.3903,-5.3903c-0.3367,-0.3368 -0.3367,-0.8827 0,-1.2195l5.3903,-5.39025c0.3905,-0.39052 1.0237,-0.39052 1.4142,0c0.3905,0.39053 0.3905,1.02369 0,1.41422l-4.5858,4.58583z"/>
  <path id="svg_2" fill="#000000" d="m10.8787,12l-4.58582,4.5857c-0.39052,0.3906 -0.39053,1.0237 0,1.4143c0.39052,0.3905 1.02369,0.3905 1.41421,0l5.39031,-5.3903c0.3367,-0.3368 0.3367,-0.8827 0,-1.2195l-5.39031,-5.39025c-0.39052,-0.39052 -1.02369,-0.39052 -1.41421,0c-0.39053,0.39053 -0.39053,1.02369 0,1.41422l4.58582,4.58583z"/>
 </g>
</svg>